PathFileType	4	(X/Y/Z)	D:\MotionData\Pi-Spi Study\20230118_AMCsubject1\Trimmed_left_abd_18001_rotated.trc
DataRate	CameraRate	NumFrames	NumMarkers	Units	OrigDataRate	OrigDataStartFrame	OrigNumFrames
200.00	200.00	       5	35	mm	200.00	1	       200
Frame#	Time	C7			Sternum			r_AMC1			r_AMC2			r_AMC3			l_AMC1			l_AMC2			l_AMC3			PX			T8			r_humerous			r_elbow_medial			r_elbow_lateral			r_forearm			r_wrist_radius			r_wrist_ulna			r_MCP_1			r_MCP_3			l_humerous			l_elbow_medial			l_elbow_lateral			l_forearm			l_wrist_radius			l_wrist_ulna			l_MCP_1			l_MCP_3			r_ASIS			r_PSIS			l_ASIS			l_PSIS			r_IC			l_IC			TS			AI			AA			
		X1	Y1	Z1	X2	Y2	Z2	X3	Y3	Z3	X4	Y4	Z4	X5	Y5	Z5	X6	Y6	Z6	X7	Y7	Z7	X8	Y8	Z8	X9	Y9	Z9	X10	Y10	Z10	X11	Y11	Z11	X12	Y12	Z12	X13	Y13	Z13	X14	Y14	Z14	X15	Y15	Z15	X16	Y16	Z16	X17	Y17	Z17	X18	Y18	Z18	X19	Y19	Z19	X20	Y20	Z20	X21	Y21	Z21	X22	Y22	Z22	X23	Y23	Z23	X24	Y24	Z24	X25	Y25	Z25	X26	Y26	Z26	X27	Y27	Z27	X28	Y28	Z28	X29	Y29	Z29	X30	Y30	Z30	X31	Y31	Z31	X32	Y32	Z32	X33	Y33	Z33	X34	Y34	Z34	X35	Y35	Z35	

1	0	197.7088	1368.9067	-210.3056	337.5278	1326.7418	-199.202	193.3429	1310.7843	-60.9242	225.6444	1313.8226	-22.279	244.8727	1350.7114	-41.0638	183.9949	1349.2878	-330.4295	216.1188	1384.8345	-347.5017	214.0812	1401.667	-298.0652	412.7854	1137.9016	-208.6442	177.8076	1188.6154	-225.9767	308.3536	1134.8588	-6.2258	247.9065	991.3466	-38.7846	258.619	1001.1706	26.3623	315.2569	847.5134	51.0334	366.9427	786.5879	35.0382	318.6692	778.1927	50.7262	390.7174	704.0345	47.8754	341.6219	699.1203	60.3453	300.1188	1483.9023	-353.3775	365.2431	1567.8213	-457.3381	320.6993	1594.3291	-452.5063	348.5441	1750.6958	-463.2282	387.8732	1821.2306	-448.7214	379.0706	1816.5455	-493	380.003	1891.7895	-451.5006	377.4262	1887.6177	-494.6834	372.2314	905.9199	-82.4578	187.1851	929.6796	-171.0094	380.3748	893.4229	-339.3241	191.2562	923.9266	-272.7258	292.0967	969.3566	-56.7445	296.936	941.9594	-380.031	125.7305	1290.3136	-294.0756	152.2396	1210.6985	-350.6742	160.4821	1379.4119	-395.0525
2	0.005	197.7443	1368.9192	-210.3153	337.5572	1326.7245	-199.1805	193.3674	1310.7659	-60.9107	225.676	1313.7611	-22.2538	244.9231	1350.6663	-41.0746	184.0528	1349.3149	-330.425	216.1565	1384.8197	-347.4657	214.127	1401.6721	-298.0296	412.8091	1137.8709	-208.5941	177.8608	1188.6406	-225.9902	308.4078	1134.8516	-6.2456	247.9183	991.3375	-38.8021	258.6061	1001.115	26.3256	315.2995	847.4824	51.0008	366.9305	786.5778	35.0369	318.6151	778.1719	50.6202	390.7743	703.9477	47.8227	341.5844	699.1337	60.3369	300.1291	1483.9343	-353.3698	365.2182	1567.8873	-457.3661	320.705	1594.3341	-452.52	348.502	1750.7135	-463.231	387.7903	1821.255	-448.7256	378.9996	1816.5717	-493.0038	379.8983	1891.8296	-451.5024	377.358	1887.6503	-494.7028	372.2669	905.9202	-82.4327	187.2258	929.6844	-170.9983	380.4417	893.4318	-339.3089	191.2709	923.921	-272.696	292.146	969.3047	-56.7353	296.9036	941.9938	-379.9227	125.7608	1290.319	-294.0701	152.3316	1210.7236	-350.72	160.5342	1379.412	-395.0394
3	0.01	197.7979	1368.9221	-210.2768	337.6283	1326.7037	-199.1978	193.4115	1310.7771	-60.8699	225.7167	1313.7235	-22.2241	244.9678	1350.6534	-41.029	184.0593	1349.3103	-330.3424	216.1574	1384.8584	-347.419	214.155	1401.6722	-297.9986	412.7981	1137.8989	-208.5768	177.8683	1188.6445	-225.9869	308.4371	1134.8392	-6.2367	247.945	991.3209	-38.8026	258.6138	1001.1127	26.366	315.2821	847.4692	50.9891	366.9663	786.5176	35.0025	318.6174	778.1842	50.5956	390.8115	703.9223	47.8191	341.5862	699.1249	60.3273	300.1539	1483.8826	-353.3335	365.236	1567.8519	-457.3573	320.6897	1594.33	-452.5287	348.4447	1750.7251	-463.223	387.7434	1821.2653	-448.7477	379.059	1816.5011	-492.9326	379.821	1891.8267	-451.5111	377.243	1887.6693	-494.7011	372.3041	905.9041	-82.4176	187.2411	929.6813	-170.98	380.4748	893.4307	-339.2967	191.2919	923.9083	-272.6925	292.0798	969.3497	-56.6851	297.0705	941.8711	-379.9701	125.7996	1290.3021	-294.0711	152.3693	1210.7084	-350.6629	160.5829	1379.4177	-395.0376
4	0.015	197.8472	1368.9321	-210.2672	337.6733	1326.7198	-199.1577	193.4293	1310.7656	-60.8695	225.7053	1313.741	-22.1834	244.996	1350.7037	-41.0536	184.0925	1349.309	-330.3193	216.1912	1384.8706	-347.3846	214.2128	1401.6835	-297.9518	412.8702	1137.8843	-208.5574	177.8759	1188.6442	-225.9841	308.448	1134.8398	-6.2164	247.9597	991.3189	-38.8342	258.652	1001.1121	26.3535	315.2962	847.4627	50.9728	366.9613	786.5507	34.9847	318.6632	778.1113	50.5837	390.7735	703.9113	47.771	341.6696	699.0308	60.2796	300.1927	1483.9026	-353.3209	365.2446	1567.8342	-457.3552	320.6885	1594.3242	-452.5514	348.4005	1750.7336	-463.2459	387.6711	1821.304	-448.7449	379.0095	1816.5193	-492.9298	379.7282	1891.8478	-451.5194	377.1823	1887.6956	-494.7256	372.3109	905.9282	-82.4117	187.2831	929.6827	-170.9662	380.5054	893.4308	-339.2858	191.3145	923.9277	-272.6761	292.0629	969.3139	-56.7104	297.0662	941.8935	-379.8802	125.8483	1290.3228	-294.0626	152.4237	1210.7206	-350.6865	160.6027	1379.4259	-395.0446
5	0.02	197.8649	1368.9491	-210.242	337.7049	1326.6936	-199.1511	193.4682	1310.7779	-60.8408	225.7465	1313.7419	-22.1842	245.0817	1350.6575	-41.0344	184.134	1349.3444	-330.2678	216.1929	1384.8846	-347.3326	214.2285	1401.712	-297.91	412.9092	1137.9073	-208.5285	177.9247	1188.6427	-225.986	308.5462	1134.801	-6.2626	247.9693	991.2804	-38.8204	258.6669	1001.0738	26.3282	315.2701	847.4563	50.9641	366.9743	786.524	34.9518	318.5896	778.1788	50.5279	390.7978	703.8752	47.7473	341.6264	698.9688	60.2048	300.2246	1483.9096	-353.3176	365.223	1567.8663	-457.3489	320.6517	1594.3412	-452.5596	348.3456	1750.7711	-463.2665	387.5952	1821.3184	-448.7643	378.947	1816.5347	-492.9649	379.6184	1891.8838	-451.5171	377.1211	1887.6476	-494.7811	372.2882	905.9392	-82.3759	187.3073	929.6854	-170.9498	380.5222	893.4261	-339.2374	191.3489	923.9338	-272.6588	292.1048	969.3616	-56.7033	297.1167	941.9164	-379.9293	125.8713	1290.3264	-294.0133	152.4782	1210.7173	-350.733	160.6449	1379.4398	-395.0347
